<svg width="24" height="25" viewBox="0 0 24 25" fill="none" xmlns="http://www.w3.org/2000/svg">
<g id="Icon Contact" clip-path="url(#clip0_655_2256)">
<path id="Vector" d="M21.99 4.5C21.99 3.4 21.1 2.5 20 2.5H4C2.9 2.5 2 3.4 2 4.5V16.5C2 17.6 2.9 18.5 4 18.5H18L22 22.5L21.99 4.5ZM17 14.5H7C6.45 14.5 6 14.05 6 13.5C6 12.95 6.45 12.5 7 12.5H17C17.55 12.5 18 12.95 18 13.5C18 14.05 17.55 14.5 17 14.5ZM17 11.5H7C6.45 11.5 6 11.05 6 10.5C6 9.95 6.45 9.5 7 9.5H17C17.55 9.5 18 9.95 18 10.5C18 11.05 17.55 11.5 17 11.5ZM17 8.5H7C6.45 8.5 6 8.05 6 7.5C6 6.95 6.45 6.5 7 6.5H17C17.55 6.5 18 6.95 18 7.5C18 8.05 17.55 8.5 17 8.5Z" fill="#333333"/>
</g>
<defs>
<clipPath id="clip0_655_2256">
<rect width="24" height="24" fill="white" transform="translate(0 0.5)"/>
</clipPath>
</defs>
</svg>
