<svg width="101" height="100" viewBox="0 0 101 100" fill="none" xmlns="http://www.w3.org/2000/svg">
<rect x="0.5" width="100" height="100" rx="20" fill="#00A1E6"/>
<g clip-path="url(#clip0_788_1375)">
<path d="M31.4498 49.6441V54.4986H41.7599C41.5888 55.4233 41.071 56.7826 39.4713 58.2852C37.3584 60.2409 34.5567 61.4337 31.4498 61.4337C28.1857 61.4337 25.2545 60.116 23.1139 57.98C20.9779 55.8394 19.6602 52.9082 19.6602 49.6441C19.6602 46.38 20.9779 43.4488 23.1139 41.3082C25.2545 39.1722 28.1857 37.8545 31.4498 37.8545C33.0865 37.8545 34.5613 38.1828 35.8743 38.7653C37.8439 39.6392 39.4667 41.0909 40.6179 42.9634C40.9415 43.495 41.2282 44.0545 41.4732 44.6463L46.2492 43.5505C45.5002 41.4515 44.3582 39.5467 42.8834 37.947C41.4825 36.4259 39.7765 35.1822 37.8393 34.3269C35.9067 33.467 33.743 33 31.4544 33H31.4498C26.8634 33 22.6839 34.8678 19.6787 37.873C16.6735 40.8782 14.8057 45.0577 14.8057 49.6441C14.8057 54.2305 16.6735 58.41 19.6787 61.4152C22.6839 64.4204 26.8588 66.2882 31.4405 66.2882H31.4452C35.8142 66.2882 39.8088 64.5961 42.7724 61.8405C44.8067 59.9542 46.9334 57.1894 46.9334 49.6441H31.4452H31.4498ZM90.1943 57.8968C90.1943 55.8625 89.362 53.9947 88.0259 52.6632C86.6944 51.327 84.8265 50.4948 82.7923 50.4948C79.9258 50.5041 77.0269 52.0113 76.1022 54.6975C75.2423 57.2172 74.202 59.0203 70.7438 60.4166C69.1348 61.0684 67.3502 61.4337 65.6627 61.4291C62.3986 61.4291 59.4674 60.1114 57.3268 57.9754C55.1908 55.8348 53.8731 52.9036 53.8731 49.6395C53.8731 46.3754 55.1908 43.4442 57.3268 41.3036C59.4674 39.1676 62.3986 37.8499 65.6627 37.8499C68.9268 37.8499 71.858 39.1676 73.9986 41.3036C75.9959 43.3055 77.272 45.9963 77.4338 49.0015C78.8254 48.2062 80.4482 47.7254 82.182 47.6329C81.7243 43.8418 79.9951 40.4297 77.4338 37.873C74.4286 34.8678 70.2537 33 65.6627 33C61.0763 33 56.8968 34.8678 53.8916 37.873C50.8818 40.8782 49.0139 45.0531 49.0186 49.6441C49.0186 54.2305 50.8864 58.41 53.8916 61.4152C56.8968 64.425 61.0717 66.2929 65.6627 66.2882C65.7274 66.2882 65.7921 66.2882 65.8569 66.2836C65.9817 66.2651 66.1111 66.2512 66.2406 66.2512C66.4671 66.2512 66.6891 66.2466 66.911 66.2374C67.0589 66.2281 67.2115 66.2189 67.3595 66.205H67.5213C70.0364 66.0524 72.2047 65.4468 74.0217 64.5961C77.5216 62.9594 79.2091 60.0282 79.9165 58.0309C80.4621 56.4774 80.9475 55.3771 82.82 55.3771C84.4382 55.3771 85.2473 56.4636 85.2473 57.8044C85.2473 58.6134 85.0947 59.404 84.8404 60.1715C84.6925 60.6154 84.5075 61.0592 84.2902 61.4938C84.133 61.8128 83.9527 62.1272 83.7632 62.4416C82.0016 65.3728 75.492 70.1117 75.492 70.1117V74H90.1619V69.1455H83.2037C83.2037 69.1455 90.1896 64.5036 90.1896 57.8968H90.1943Z" fill="white"/>
</g>
<defs>
<clipPath id="clip0_788_1375">
<rect width="75.3886" height="41" fill="white" transform="translate(14.8057 33)"/>
</clipPath>
</defs>
</svg>
