<svg width="74" height="41" viewBox="0 0 74 41" fill="none" xmlns="http://www.w3.org/2000/svg">
<g id="GO2 Vector Logo" clip-path="url(#clip0_604_363)">
<path id="Vector" d="M70.5199 32.7565C71.686 31.4805 72.5458 30.1397 73.122 28.8174C73.7027 27.4813 74 26.159 74 24.8968C74 22.8625 73.1768 20.9947 71.8552 19.6632C70.5382 18.327 68.6953 17.4948 66.6786 17.4948C64.6665 17.4948 62.819 18.327 61.502 19.6632C60.5097 20.6618 59.8009 21.9656 59.5082 23.4127C59.3893 23.9999 59.1698 24.3328 58.7628 24.7581L58.6347 24.8968C56.5129 27.0837 53.577 28.4337 50.3073 28.4337C47.0788 28.4337 44.1796 27.116 42.0623 24.98C39.9495 22.8394 38.6462 19.9082 38.6462 16.6441C38.6462 13.38 39.9495 10.4488 42.0623 8.30819C44.1796 6.17219 47.0788 4.85453 50.3073 4.85453C53.5359 4.85453 56.4351 6.17219 58.5524 8.30819C60.4822 10.2592 61.7307 12.8714 61.9364 15.7934C62.188 15.6593 62.4486 15.5345 62.7138 15.4189C63.9257 14.9011 65.2656 14.6098 66.6466 14.6098C66.1893 10.8325 64.4745 7.42975 61.9456 4.87765C58.9732 1.86784 54.8437 0 50.3073 0C45.7664 0 41.637 1.86784 38.6645 4.87303C35.6875 7.87821 33.84 12.0531 33.8446 16.6441C33.8446 21.2305 35.6921 25.41 38.6645 28.4152C41.637 31.4204 45.7664 33.2882 50.3028 33.2882H50.3073C54.9992 33.2882 59.2521 31.2909 62.2474 28.1054C62.2474 28.1054 64.1635 26.2746 64.1635 24.6194C64.1635 24.1155 64.4424 23.5653 64.8997 23.0983C65.3616 22.636 65.979 22.354 66.6786 22.354C67.3829 22.354 67.9956 22.636 68.4575 23.0983C68.9148 23.5653 69.1938 24.1894 69.1938 24.8968C69.1938 25.3638 69.0703 26.0665 68.7227 26.8664C68.3752 27.6662 67.8081 28.5724 66.9713 29.4832L66.9576 29.4971L59.9152 37.4493V41H73.968V36.1455H67.5155L70.5154 32.7565H70.5199Z" fill="#00A1E6"/>
<path id="Vector_2" d="M28.979 16.6441H16.4627V21.4986H26.3175C26.1849 22.2384 26.0065 22.8256 25.8008 23.3156C25.4669 24.0831 25.0645 24.6472 24.4014 25.2806C22.3116 27.2409 19.5404 28.4291 16.4673 28.4291C13.2388 28.4291 10.3395 27.1114 8.22222 24.9754C6.1095 22.8348 4.8062 19.9036 4.8062 16.6395C4.8062 13.3754 6.1095 10.4442 8.22222 8.30356C10.3395 6.16757 13.2388 4.84991 16.4673 4.84991C18.0861 4.84991 19.5449 5.17817 20.8437 5.76071C22.7917 6.63453 24.3969 8.08627 25.5355 9.95873C25.8556 10.4858 26.1392 11.0498 26.3815 11.6416L31.1054 10.5459C30.3646 8.44689 29.2351 6.54206 27.7809 4.94238C26.3953 3.42129 24.7078 2.1776 22.7917 1.32228C20.8711 0.46696 18.7355 0 16.4719 0H16.4627C11.9218 0 7.79236 1.86784 4.81992 4.87303C1.84748 7.87821 0 12.0577 0 16.6441C0 21.2305 1.84748 25.41 4.8245 28.4152C7.79236 31.4204 11.9218 33.2882 16.4582 33.2882H16.4627C20.7796 33.2882 24.7353 31.5961 27.6665 28.8405C28.3845 28.1702 29.0156 27.4166 29.5277 26.5659C29.9119 25.9325 30.232 25.2482 30.4835 24.527C30.8631 23.4405 31.0963 22.2707 31.2426 20.9808C31.3844 19.6863 31.4393 18.2669 31.4393 16.6441H28.979Z" fill="#00A1E6"/>
</g>
<defs>
<clipPath id="clip0_604_363">
<rect width="74" height="41" fill="white"/>
</clipPath>
</defs>
</svg>
