<svg width="25" height="25" viewBox="0 0 25 25" fill="none" xmlns="http://www.w3.org/2000/svg">
<g clip-path="url(#clip0_788_1435)">
<path d="M12.5 2.5C6.98 2.5 2.5 6.98 2.5 12.5C2.5 18.02 6.98 22.5 12.5 22.5C18.02 22.5 22.5 18.02 22.5 12.5C22.5 6.98 18.02 2.5 12.5 2.5ZM12.5 17.5C11.95 17.5 11.5 17.05 11.5 16.5V12.5C11.5 11.95 11.95 11.5 12.5 11.5C13.05 11.5 13.5 11.95 13.5 12.5V16.5C13.5 17.05 13.05 17.5 12.5 17.5ZM13.5 9.5H11.5V7.5H13.5V9.5Z" fill="white" fill-opacity="0.8"/>
</g>
<defs>
<clipPath id="clip0_788_1435">
<rect width="24" height="24" fill="white" transform="translate(0.5 0.5)"/>
</clipPath>
</defs>
</svg>
