<svg width="24" height="25" viewBox="0 0 24 25" fill="none" xmlns="http://www.w3.org/2000/svg">
<g clip-path="url(#clip0_3101_2847)">
<path d="M12.65 10.5C11.7 7.81 8.9 6 5.77 6.62C3.48 7.08 1.62 8.91 1.14 11.2C0.320001 15.07 3.26 18.5 7 18.5C9.61 18.5 11.83 16.83 12.65 14.5H17V16.5C17 17.6 17.9 18.5 19 18.5C20.1 18.5 21 17.6 21 16.5V14.5C22.1 14.5 23 13.6 23 12.5C23 11.4 22.1 10.5 21 10.5H12.65ZM7 14.5C5.9 14.5 5 13.6 5 12.5C5 11.4 5.9 10.5 7 10.5C8.1 10.5 9 11.4 9 12.5C9 13.6 8.1 14.5 7 14.5Z" fill="#333333"/>
</g>
<defs>
<clipPath id="clip0_3101_2847">
<rect width="24" height="24" fill="white" transform="translate(0 0.5)"/>
</clipPath>
</defs>
</svg>
