<svg width="22" height="13" viewBox="0 0 22 13" fill="none" xmlns="http://www.w3.org/2000/svg">
<path d="M11.65 4.50012C10.7 1.81012 7.9 0.000120997 4.77 0.620121C2.48 1.08012 0.620001 2.91012 0.140001 5.20012C-0.679999 9.07012 2.26 12.5001 6 12.5001C8.61 12.5001 10.83 10.8301 11.65 8.50012H16V10.5001C16 11.6001 16.9 12.5001 18 12.5001C19.1 12.5001 20 11.6001 20 10.5001V8.50012C21.1 8.50012 22 7.60012 22 6.50012C22 5.40012 21.1 4.50012 20 4.50012H11.65ZM6 8.50012C4.9 8.50012 4 7.60012 4 6.50012C4 5.40012 4.9 4.50012 6 4.50012C7.1 4.50012 8 5.40012 8 6.50012C8 7.60012 7.1 8.50012 6 8.50012Z" fill="white" fill-opacity="0.8"/>
</svg>
