<svg width="24" height="25" viewBox="0 0 24 25" fill="none" xmlns="http://www.w3.org/2000/svg">
<path d="M22.42 11.8396L20.56 9.71958L20.82 6.90958C20.87 6.40958 20.53 5.94958 20.05 5.83958L17.29 5.20958L15.85 2.77958C15.59 2.34958 15.06 2.16958 14.6 2.36958L12 3.49958L9.41 2.38958C8.95 2.18958 8.41 2.36958 8.16 2.79958L6.71 5.21958L3.96 5.83958C3.47 5.94958 3.13 6.39958 3.18 6.90958L3.44 9.70958L1.58 11.8396C1.25 12.2196 1.25 12.7796 1.58 13.1596L3.44 15.2796L3.18 18.0996C3.13 18.5996 3.47 19.0596 3.95 19.1696L6.71 19.7996L8.15 22.2196C8.41 22.6496 8.94 22.8296 9.41 22.6296L12 21.4996L14.59 22.6096C15.05 22.8096 15.59 22.6296 15.84 22.1996L17.28 19.7696L20.04 19.1396C20.53 19.0296 20.86 18.5696 20.81 18.0696L20.55 15.2596L22.41 13.1396C22.75 12.7796 22.75 12.2196 22.42 11.8396ZM13 17.4996H11V15.4996H13V17.4996ZM12 13.4996C11.45 13.4996 11 13.0496 11 12.4996V8.49958C11 7.94958 11.45 7.49958 12 7.49958C12.55 7.49958 13 7.94958 13 8.49958V12.4996C13 13.0496 12.55 13.4996 12 13.4996Z" fill="white" fill-opacity="0.8"/>
</svg>
