<svg width="24" height="25" viewBox="0 0 24 25" fill="none" xmlns="http://www.w3.org/2000/svg">
<path d="M22.42 11.8399L20.56 9.71994L20.82 6.90994C20.87 6.40994 20.53 5.94994 20.05 5.83994L17.29 5.20994L15.85 2.77994C15.59 2.34994 15.06 2.16994 14.6 2.36994L12 3.49994L9.40999 2.38994C8.94999 2.18994 8.40999 2.36994 8.15999 2.79994L6.70999 5.21994L3.95999 5.83994C3.46999 5.94994 3.12999 6.39994 3.17999 6.90994L3.43999 9.70994L1.57999 11.8399C1.24999 12.2199 1.24999 12.7799 1.57999 13.1599L3.43999 15.2799L3.17999 18.0999C3.12999 18.5999 3.46999 19.0599 3.94999 19.1699L6.70999 19.7999L8.14999 22.2199C8.40999 22.6499 8.93999 22.8299 9.40999 22.6299L12 21.4999L14.59 22.6099C15.05 22.8099 15.59 22.6299 15.84 22.1999L17.28 19.7699L20.04 19.1399C20.53 19.0299 20.86 18.5699 20.81 18.0699L20.55 15.2599L22.41 13.1399C22.75 12.7799 22.75 12.2199 22.42 11.8399ZM13 17.4999H11V15.4999H13V17.4999ZM12 13.4999C11.45 13.4999 11 13.0499 11 12.4999V8.49994C11 7.94994 11.45 7.49994 12 7.49994C12.55 7.49994 13 7.94994 13 8.49994V12.4999C13 13.0499 12.55 13.4999 12 13.4999Z" fill="#333333"/>
</svg>
