<svg width="25" height="25" viewBox="0 0 25 25" fill="none" xmlns="http://www.w3.org/2000/svg">
<g clip-path="url(#clip0_788_1440)">
<path d="M12.5 2.5C6.98 2.5 2.5 6.98 2.5 12.5C2.5 18.02 6.98 22.5 12.5 22.5C18.02 22.5 22.5 18.02 22.5 12.5C22.5 6.98 18.02 2.5 12.5 2.5ZM13.5 19.5H11.5V17.5H13.5V19.5ZM15.57 11.75L14.67 12.67C14.17 13.18 13.81 13.64 13.63 14.36C13.55 14.68 13.5 15.04 13.5 15.5H11.5V15C11.5 14.54 11.58 14.1 11.72 13.69C11.92 13.11 12.25 12.59 12.67 12.17L13.91 10.91C14.37 10.47 14.59 9.81 14.46 9.11C14.33 8.39 13.77 7.78 13.07 7.58C11.96 7.27 10.93 7.9 10.6 8.85C10.48 9.22 10.17 9.5 9.78 9.5H9.48C8.9 9.5 8.5 8.94 8.66 8.38C9.09 6.91 10.34 5.79 11.89 5.55C13.41 5.31 14.86 6.1 15.76 7.35C16.94 8.98 16.59 10.73 15.57 11.75Z" fill="white" fill-opacity="0.8"/>
</g>
<defs>
<clipPath id="clip0_788_1440">
<rect width="24" height="24" fill="white" transform="translate(0.5 0.5)"/>
</clipPath>
</defs>
</svg>
