<svg width="24" height="25" viewBox="0 0 24 25" fill="none" xmlns="http://www.w3.org/2000/svg">
<g clip-path="url(#clip0_788_1908)">
<path d="M12 2.5C6.48 2.5 2 6.98 2 12.5C2 18.02 6.48 22.5 12 22.5C17.52 22.5 22 18.02 22 12.5C22 6.98 17.52 2.5 12 2.5ZM13 19.5H11V17.5H13V19.5ZM15.07 11.75L14.17 12.67C13.67 13.18 13.31 13.64 13.13 14.36C13.05 14.68 13 15.04 13 15.5H11V15C11 14.54 11.08 14.1 11.22 13.69C11.42 13.11 11.75 12.59 12.17 12.17L13.41 10.91C13.87 10.47 14.09 9.81 13.96 9.11C13.83 8.39 13.27 7.78 12.57 7.58C11.46 7.27 10.43 7.9 10.1 8.85C9.98 9.22 9.67 9.5 9.28 9.5H8.98C8.4 9.5 8 8.94 8.16 8.38C8.59 6.91 9.84 5.79 11.39 5.55C12.91 5.31 14.36 6.1 15.26 7.35C16.44 8.98 16.09 10.73 15.07 11.75Z" fill="#333333"/>
</g>
<defs>
<clipPath id="clip0_788_1908">
<rect width="24" height="24" fill="white" transform="translate(0 0.5)"/>
</clipPath>
</defs>
</svg>
